<svg width="907" height="951" viewBox="0 0 907 951" fill="none" xmlns="http://www.w3.org/2000/svg" xmlns:xlink="http://www.w3.org/1999/xlink">
                        <path d="M1047.79 0V950.431H343.77C337.123 941.336 331.22 931.279 326.167 920.438C277.73 815.952 304.515 687.491 264.597 576.485C216.07 441.529 78.668 417.835 18.3071 292.089C-8.02125 237.229 -0.935242 156.008 15.1807 95.1532C27.0236 50.4328 46.8482 20.6233 71.3312 0.0366947L1047.79 0Z" fill="#D9D9D9"></path>
                        <path d="M1047.79 0V950.431H343.77C337.123 941.336 331.22 931.279 326.167 920.438C277.73 815.952 304.515 687.491 264.597 576.485C216.07 441.529 78.668 417.835 18.3071 292.089C-8.02125 237.229 -0.935242 156.008 15.1807 95.1532C27.0236 50.4328 46.8482 20.6233 71.3312 0.0366947L1047.79 0Z" fill="url(#pattern0_1224_35)"></path>
                        <defs>
                            <pattern id="pattern0_1224_35" patternContentUnits="objectBoundingBox" width="1" height="1">
                                <use xlink:href="#image0_1224_35" transform="matrix(0.000680485 0 0 0.000749625 -0.180485 0)"></use>
                            </pattern>
                            <image id="image0_1224_35" width="2000" height="1334" xlink:href="images/slider/slider-img.png"></image>
                        </defs>
                    </svg>